<?xml version="1.0" standalone="no"?>
<!DOCTYPE svg PUBLIC "-//W3C//DTD SVG 20010904//EN"
 "http://www.w3.org/TR/2001/REC-SVG-20010904/DTD/svg10.dtd">
<svg version="1.0" xmlns="http://www.w3.org/2000/svg"
 width="579.000000pt" height="552.000000pt" viewBox="0 0 579.000000 552.000000"
 preserveAspectRatio="xMidYMid meet">

<g transform="translate(0.000000,552.000000) scale(0.100000,-0.100000)"
fill="#d45252" stroke="none">
<path d="M1547 4956 l-78 -145 1031 -1905 c567 -1048 1033 -1913 1036 -1921 6
-14 -22 -15 -246 -13 l-252 3 -824 1525 c-454 839 -832 1535 -840 1548 -14 22
-18 22 -162 20 l-147 -3 -78 -144 -77 -143 736 -1362 c405 -748 747 -1380 760
-1403 l25 -43 -254 0 -254 0 -556 1028 -555 1027 -154 3 -153 2 -23 -42 c-13
-24 -48 -88 -77 -143 l-54 -100 633 -1170 633 -1170 1275 -3 1275 -2 72 133
c39 73 71 139 71 146 0 7 -537 1005 -1192 2217 l-1193 2204 -150 0 -150 0 -78
-144z"/>
<path d="M2686 4939 c-42 -77 -76 -142 -76 -144 0 -2 85 -160 189 -352 103
-191 547 -1012 986 -1823 438 -811 801 -1479 805 -1483 6 -7 853 1545 862
1580 2 7 -94 192 -212 412 l-215 400 -404 1 c-351 0 -402 2 -397 15 3 8 91
173 197 367 105 194 192 358 192 364 0 6 -96 190 -214 408 l-214 396 -712 0
-711 0 -76 -141z m1252 -534 c34 -63 62 -120 62 -127 0 -7 -56 -115 -124 -240
l-123 -227 -163 302 c-90 166 -177 326 -193 355 l-29 52 254 0 253 0 63 -115z
m842 -1557 c36 -67 64 -126 62 -131 -3 -10 -241 -449 -246 -454 -2 -2 -88 153
-191 344 -103 191 -190 351 -192 356 -2 4 110 7 249 7 l253 0 65 -122z"/>
</g>
</svg>
